<svg xmlns="http://www.w3.org/2000/svg" width="118.892" height="113.937" viewBox="0 0 118.892 113.937">
  <g id="Grupo_1476" data-name="Grupo 1476" transform="translate(-554.854 -2096.159)">
    <path id="Caminho_3438" data-name="Caminho 3438" d="M182.334,338.809a55.134,55.134,0,0,1-46.693-25.948,2.477,2.477,0,0,1,4.219-2.6,50.147,50.147,0,0,0,42.474,23.591,49.594,49.594,0,0,0,49.539-49.537,2.476,2.476,0,1,1,4.952,0,54.553,54.553,0,0,1-54.491,54.491" transform="translate(431.965 1871.286)" fill="#017562"/>
    <path id="Caminho_3439" data-name="Caminho 3439" d="M158.33,299.467l-19.815-14.861A2.474,2.474,0,0,0,134.6,286.1l-4.954,24.767A2.477,2.477,0,0,0,133,313.656l24.77-9.906a2.479,2.479,0,0,0,.565-4.282" transform="translate(425.255 1873.97)" fill="#017562"/>
    <path id="Caminho_3440" data-name="Caminho 3440" d="M134.345,312.707a2.477,2.477,0,0,1-2.477-2.477,54.553,54.553,0,0,1,54.493-54.491,55.149,55.149,0,0,1,46.693,25.946,2.478,2.478,0,0,1-4.219,2.6,50.157,50.157,0,0,0-42.474-23.593,49.594,49.594,0,0,0-49.539,49.539,2.477,2.477,0,0,1-2.477,2.477" transform="translate(427.938 1840.42)" fill="#017562"/>
    <path id="Caminho_3441" data-name="Caminho 3441" d="M199.285,266.526a2.475,2.475,0,0,0-2.5-.4l-24.77,9.909a2.475,2.475,0,0,0-.565,4.28l19.815,14.863a2.474,2.474,0,0,0,3.913-1.5l4.954-24.77a2.474,2.474,0,0,0-.845-2.39" transform="translate(473.567 1852.497)" fill="#017562"/>
    <path id="Caminho_3442" data-name="Caminho 3442" d="M203.45,294.167,191.086,281.8a12.237,12.237,0,0,0-17.307,0l12.362,12.364-6.8,6.8a9.616,9.616,0,0,1-12.951.587l7.388-7.388-17.327.074a6.107,6.107,0,0,0-4.317,10.426l4.952,4.954a21.855,21.855,0,0,0,30.909,0Z" transform="translate(449.788 1867.002)" fill="#017562"/>
    <path id="Caminho_3443" data-name="Caminho 3443" d="M138.995,290l12.364,12.364a12.238,12.238,0,0,0,17.307,0L156.3,290l6.8-6.8a9.616,9.616,0,0,1,12.951-.587L168.667,290l17.327-.074a6.107,6.107,0,0,0,4.317-10.426l-4.952-4.954a21.855,21.855,0,0,0-30.909,0Z" transform="translate(436.366 1855.086)" fill="#82ed70"/>
  </g>
</svg>
